<svg xmlns="http://www.w3.org/2000/svg" id="Слой_2" width="254.064" height="39.58" data-name="Слой 2" viewBox="0 0 254.064 39.58">
    <defs>
        <style>
            .cls-1{fill:#ed1651}.cls-2{fill:#00a7e1}.cls-3{fill:#ce0f46}.cls-4{fill:#0093c5}
        </style>
    </defs>
    <g id="Layer_1" data-name="Layer 1">
        <path id="Path_1" d="M225.621 13.995a8.889 8.889 0 0 1-12.1.01 7.839 7.839 0 0 1-2.421-5.816 7.81 7.81 0 0 1 2.441-5.8 8.885 8.885 0 0 1 12.1-.012 7.83 7.83 0 0 1 2.417 5.816 7.8 7.8 0 0 1-2.437 5.802zm-6.021-1.553a3.706 3.706 0 0 0 2.89-1.238 4.354 4.354 0 0 0 1.115-3.015 4.271 4.271 0 0 0-1.148-3 3.778 3.778 0 0 0-2.9-1.245 3.677 3.677 0 0 0-2.868 1.238 4.363 4.363 0 0 0-1.114 3.014 4.3 4.3 0 0 0 1.136 3 3.747 3.747 0 0 0 2.889 1.246z" class="cls-1" data-name="Path 1" transform="translate(-195.641)"/>
        <path id="Path_2" d="M473.75 20.059V4.31h14.107v15.749h-4.365V8.135h-5.376v11.924z" class="cls-1" data-name="Path 2" transform="translate(-439.058 -3.994)"/>
        <path id="Path_3" d="M704.48 20.059V4.31h12.669v3.712H708.8v2.384h7.558v3.442H708.8v2.5h8.461v3.713z" class="cls-1" data-name="Path 3" transform="translate(-652.892 -3.994)"/>
        <path id="Path_4" d="M909.4 20.059V4.31h6.75a7.23 7.23 0 0 1 4.78 1.473 5.058 5.058 0 0 1 1.77 4.106 5.042 5.042 0 0 1-1.867 4.184 7.642 7.642 0 0 1-4.906 1.485h-2.161v4.5zm4.365-7.919h2.069a2.748 2.748 0 0 0 1.834-.562 1.907 1.907 0 0 0 .659-1.53 1.848 1.848 0 0 0-.659-1.538 2.939 2.939 0 0 0-1.853-.532h-2.05z" class="cls-1" data-name="Path 4" transform="translate(-842.806 -3.994)"/>
        <path id="Path_5" d="M1116.18 20.059V4.31h12.669v3.712h-8.349v2.384h7.559v3.442h-7.559v2.5h8.459v3.713z" class="cls-1" data-name="Path 5" transform="translate(-1034.443 -3.994)"/>
        <path id="Path_6" d="M1300.19 20.059l5.8-9.112-5.6-6.637h5.106l4.973 6.388V4.31h4.364v6.39l4.972-6.388h5.108l-5.6 6.637 5.806 9.112h-5.175l-3.6-5.94-1.507 1.757v4.184h-4.364v-4.188l-1.507-1.757-3.6 5.94z" class="cls-1" data-name="Path 6" transform="translate(-1204.978 -3.994)"/>
        <path id="Path_7" d="M1640.61 18.631l6.7-15.861h4.207l6.7 15.861h-4.681l-1.147-2.81h-6.074l-1.125 2.813zm7-6.21h3.532l-1.758-4.478z" class="cls-1" data-name="Path 7" transform="translate(-1520.47 -2.567)"/>
        <path id="Path_8" d="M1892.25 20.058l3.757-5.492a4.907 4.907 0 0 1-3.24-4.882 4.7 4.7 0 0 1 1.831-4 7.6 7.6 0 0 1 4.693-1.369h7.448v15.743h-4.365v-4.77h-1.912l-3.172 4.77zm7.243-8.122h2.88V8.022h-2.856a2.648 2.648 0 0 0-1.733.518 1.79 1.79 0 0 0-.63 1.465 1.757 1.757 0 0 0 .618 1.407 2.555 2.555 0 0 0 1.721.525z" class="cls-1" data-name="Path 8" transform="translate(-1753.683 -3.994)"/>
        <path id="Path_9" d="M0 298.169V282.42h4.365v5.894h5.6v-5.894h4.364v15.749H9.966v-5.985h-5.6v5.985z" class="cls-2" data-name="Path 9" transform="translate(0 -261.739)"/>
        <path id="Path_10" d="M216.6 296.741l6.7-15.861h4.208l6.7 15.861h-4.681l-1.147-2.813h-6.074l-1.126 2.813zm7-6.21h3.532l-1.758-4.477z" class="cls-2" data-name="Path 10" transform="translate(-200.739 -260.311)"/>
        <path id="Path_11" d="M466.512 294.525a8.231 8.231 0 0 1-5.749-14.012 8.074 8.074 0 0 1 5.932-2.363 7.721 7.721 0 0 1 6.615 3.33l-3.2 2.474a4.341 4.341 0 0 0-3.465-1.821 3.419 3.419 0 0 0-2.7 1.215 4.776 4.776 0 0 0 0 5.994 3.439 3.439 0 0 0 2.7 1.2 3.755 3.755 0 0 0 1.958-.483 6.466 6.466 0 0 0 1.6-1.429l3.284 2.34a9.27 9.27 0 0 1-2.88 2.621 8.137 8.137 0 0 1-4.095.934z" class="cls-2" data-name="Path 11" transform="translate(-424.823 -257.781)"/>
        <path id="Path_12" d="M682.728 298.169v-11.924H678v-3.825h13.818v3.825h-4.725v11.924z" class="cls-2" data-name="Path 12" transform="translate(-628.351 -261.739)"/>
        <path id="Path_13" d="M890.761 292.1a8.89 8.89 0 0 1-12.1.01 8.163 8.163 0 0 1 .025-11.62 8.887 8.887 0 0 1 12.1-.012 8.166 8.166 0 0 1-.024 11.621zm-6.019-1.554a3.707 3.707 0 0 0 2.89-1.238 4.341 4.341 0 0 0 1.112-3.014 4.282 4.282 0 0 0-1.148-3 3.77 3.77 0 0 0-2.9-1.249 3.685 3.685 0 0 0-2.868 1.238 4.585 4.585 0 0 0 .023 6.016 3.756 3.756 0 0 0 2.892 1.252z" class="cls-2" data-name="Path 13" transform="translate(-812.074 -257.744)"/>
        <path id="Path_14" d="M1129.07 298.141l3.757-5.492a4.905 4.905 0 0 1-3.24-4.881 4.692 4.692 0 0 1 1.831-4.006 7.632 7.632 0 0 1 4.691-1.372h7.447v15.751h-4.365v-4.77h-1.911l-3.172 4.77zm7.245-8.122h2.88V286.1h-2.856a2.651 2.651 0 0 0-1.733.518 1.788 1.788 0 0 0-.63 1.465 1.757 1.757 0 0 0 .618 1.407 2.56 2.56 0 0 0 1.721.529z" class="cls-2" data-name="Path 14" transform="translate(-1046.389 -261.711)"/>
        <path id="Path_15" d="M1384.642 301.319v-3.149H1365v-15.75h4.365v11.924h4.476V282.42h4.365v11.924h4.478V282.42h4.363v11.924h1.779l-.495 6.975z" class="cls-2" data-name="Path 15" transform="translate(-1265.043 -261.739)"/>
        <path id="Path_16" d="M1710.67 298.169V282.42h12.669v3.711h-8.348v2.385h7.559v3.442h-7.561v2.5h8.459v3.713z" class="cls-2" data-name="Path 16" transform="translate(-1585.399 -261.739)"/>
        <path id="Path_17" d="M1915.59 298.169V282.42h12.668v3.711h-8.348v2.385h7.558v3.442h-7.559v2.5h8.459v3.713z" class="cls-2" data-name="Path 17" transform="translate(-1775.313 -261.739)"/>
        <path id="Path_18" d="M2249.78 108.889l-14.46-7.229h28.92z" class="cls-1" data-name="Path 18" transform="translate(-2071.63 -94.216)"/>
        <path id="Path_19" d="M2249.78 299.12l-14.46 7.229h28.92z" class="cls-2" data-name="Path 19" transform="translate(-2071.63 -277.216)"/>
        <path id="Path_20" d="M2482.14 112.5l36.15.039-14.46-10.883z" class="cls-3" data-name="Path 20" transform="translate(-2300.375 -94.216)"/>
        <path id="Path_21" d="M3222.61 21h18.075L3222.61 2.93z" class="cls-1" data-name="Path 21" transform="translate(-2986.622 -2.715)"/>
        <path id="Path_22" d="M2975.79 21h18.074l-.024-18.07z" class="cls-3" data-name="Path 22" transform="translate(-2757.876 -2.715)"/>
        <path id="Path_23" d="M2630.24 2.93h43.379L2655.544 21z" class="cls-1" data-name="Path 23" transform="translate(-2437.63 -2.715)"/>
        <path id="Path_24" d="M2482.14 249.789l36.15-.039-14.46 10.861z" class="cls-4" data-name="Path 24" transform="translate(-2300.375 -231.461)"/>
        <path id="Path_25" d="M3222.61 250.28h18.075l-18.075 18.036z" class="cls-2" data-name="Path 25" transform="translate(-2986.622 -231.952)"/>
        <path id="Path_26" d="M2975.79 250.28h18.074l-.024 18.036z" class="cls-4" data-name="Path 26" transform="translate(-2757.876 -231.952)"/>
        <path id="Path_27" d="M2630.24 268.316h43.379l-18.074-18.036z" class="cls-2" data-name="Path 27" transform="translate(-2437.63 -231.952)"/>
    </g>
</svg>
